<?xml version="1.0" encoding="UTF-8"?>
<svg width="512" height="512" viewBox="0 0 512 512" xmlns="http://www.w3.org/2000/svg">
  <circle cx="256" cy="256" r="256" fill="#F4A460" opacity="0.2"/>
  <path d="M256 120c-30 0-60 25-60 65 0 25 15 45 35 55-20 10-35 30-35 55 0 40 30 65 60 65s60-25 60-65c0-25-15-45-35-55 20-10 35-30 35-55 0-40-30-65-60-65zm0 40c11 0 20 9 20 20s-9 20-20 20-20-9-20-20 9-20 20-20zm0 150c11 0 20 9 20 20s-9 20-20 20-20-9-20-20 9-20 20-20z" fill="#000"/>
  <path d="M216 220c-15-10-25-25-25-45 0-30 20-45 40-45s40 15 40 45c0 20-10 35-25 45 15 10 25 25 25 45 0 30-20 45-40 45s-40-15-40-45c0-20 10-35 25-45zm40-45c0-11-9-20-20-20s-20 9-20 20 9 20 20 20 20-9 20-20zm0 90c0-11-9-20-20-20s-20 9-20 20 9 20 20 20 20-9 20-20z" fill="#000"/>
</svg> 